<svg xmlns="http://www.w3.org/2000/svg" width="112" height="20" viewBox="0 0 112 20" fill="none">
<path d="M33 0L35.2451 6.90983H42.5106L36.6327 11.1803L38.8779 18.0902L33 13.8197L27.1221 18.0902L29.3673 11.1803L23.4894 6.90983H30.7549L33 0Z" fill="#FBD029"/>
<path d="M10 0L12.2451 6.90983H19.5106L13.6327 11.1803L15.8779 18.0902L10 13.8197L4.12215 18.0902L6.36729 11.1803L0.489435 6.90983H7.75486L10 0Z" fill="#FBD029"/>
<path d="M56 0L58.2451 6.90983H65.5106L59.6327 11.1803L61.8779 18.0902L56 13.8197L50.1221 18.0902L52.3673 11.1803L46.4894 6.90983H53.7549L56 0Z" fill="#FBD029"/>
<path d="M102 0L104.245 6.90983H111.511L105.633 11.1803L107.878 18.0902L102 13.8197L96.1221 18.0902L98.3673 11.1803L92.4894 6.90983H99.7549L102 0Z" fill="#D9D9D9"/>
<path d="M79 0L81.2451 6.90983H88.5106L82.6327 11.1803L84.8779 18.0902L79 13.8197L73.1221 18.0902L75.3673 11.1803L69.4894 6.90983H76.7549L79 0Z" fill="#D9D9D9"/>
</svg>